HIERARCHY
ROOT Hips
{
	OFFSET 0.000000 0.000000 0.000000 
	CHANNELS 6 Xposition Yposition Zposition Yrotation Zrotation Xrotation 
	JOINT Lumbar
	{
		OFFSET 0.000000 0.000000 0.000000 
		CHANNELS 3 Zrotation Xrotation Yrotation
		JOINT Neck
		{
			OFFSET 0.000000 0.445665 0.000000 
			CHANNELS 3 Zrotation Xrotation Yrotation
			End Site
			{
				OFFSET 0.000000 0.227535 0.000000 
			}
		}
		JOINT RightShoulder
		{
			OFFSET 0.019635 0.377685 0.194865 
			CHANNELS 3 Zrotation Xrotation Yrotation
			JOINT RightElbow
			{
				OFFSET 0.000000 -0.243375 0.000000 
				CHANNELS 2 Zrotation Yrotation
				JOINT RightWrist
				{
					OFFSET 0.000000 -0.264825 0.000000 
					CHANNELS 2 Zrotation Xrotation
					End Site
					{
						OFFSET 0.006600 -0.176220 0.000990 
					}
				}
			}
		}
		JOINT LeftShoulder
		{
			OFFSET 0.019635 0.377685 -0.194865 
			CHANNELS 3 Zrotation Xrotation Yrotation
			JOINT LeftElbow
			{
				OFFSET 0.000000 -0.243375 0.000000 
				CHANNELS 2 Zrotation Yrotation
				JOINT LeftWrist
				{
					OFFSET 0.000000 -0.264825 0.000000 
					CHANNELS 2 Zrotation Xrotation
					End Site
					{
						OFFSET 0.006600 -0.176220 -0.000990 
					}
				}
			}
		}
	}
	JOINT RightHip
	{
		OFFSET 0.052140 -0.069960 0.075570 
		CHANNELS 3 Zrotation Xrotation Yrotation
		JOINT RightKnee
		{
			OFFSET 0.000000 -0.402270 0.000000 
			CHANNELS 1 Zrotation
			JOINT RightAnkle
			{
				OFFSET 0.000000 -0.404085 0.000000 
				CHANNELS 3 Zrotation Xrotation Yrotation
				End Site
				{
					OFFSET 0.204105 -0.089430 0.008415 
				}
			}
		}
	}
	JOINT LeftHip
	{
		OFFSET 0.052140 -0.069960 -0.075570 
		CHANNELS 3 Zrotation Xrotation Yrotation
		JOINT LeftKnee
		{
			OFFSET 0.000000 -0.402270 0.000000 
			CHANNELS 1 Zrotation
			JOINT LeftAnkle
			{
				OFFSET 0.000000 -0.404085 0.000000 
				CHANNELS 3 Zrotation Xrotation Yrotation
				End Site
				{
					OFFSET 0.204105 -0.089430 -0.008415 
				}
			}
		}
	}
}
MOTION
Frames: 20
Frame Time: 0.02
-0 0.95578 -0 186.16498 0 -3.15789 4.3115 4.02507 -5.38298 -4.5461 9.1904 -2.43438 -0.99209 -18.99443 14.34139 9.82393 79.99364 -0.929 2.14332 -1.01746 -2.16439 28.70736 5.32824 -65.4237 -5.44144 -3.93995 -4.20746 7.28689 3.07768 -3.73481 1.79585 -4.08334 -5.80464 -2.42831 0.3651 -5.31066 -5.96167 6.23153 6.15956 8.78666
0.00039 0.95579 -6e-05 186.25084 0 -3.15002 4.17495 4.06364 -5.41404 -4.02058 9.16116 -2.39002 -1.39657 -19.02537 13.90855 9.67085 79.93371 -1.07426 1.96421 -1.45202 -1.77211 23.40443 5.32815 -66.82459 -5.12917 -3.25713 -4.18708 7.28762 3.0361 -3.74201 1.79204 -4.10374 -5.84884 -2.37871 0.35935 -5.39972 -5.99713 6.21744 6.15531 8.78717
0.00078 0.95579 -0.00011 186.33611 0 -3.14234 4.03889 4.10216 -5.44398 -3.49763 9.13237 -2.34553 -1.79808 -19.05664 13.48019 9.51908 79.87427 -1.21853 1.78598 -1.88108 -1.38217 18.13234 5.32899 -68.21737 -4.81934 -2.57835 -4.16649 7.2885 2.99487 -3.74959 1.78823 -4.1239 -5.89272 -2.3296 0.35392 -5.48802 -6.03175 6.2032 6.15093 8.78716
0.00117 0.95579 -0.00017 186.42056 0 -3.13496 3.90378 4.14073 -5.46974 -2.98031 9.10408 -2.29994 -2.19315 -19.0889 13.06588 9.37089 79.81627 -1.35972 1.6104 -2.2947 -0.99612 12.92677 5.33364 -69.59223 -4.51659 -1.9088 -4.14543 7.28946 2.95344 -3.75781 1.78447 -4.14335 -5.9352 -2.28125 0.34888 -5.57491 -6.06491 6.18857 6.1465 8.78617
0.00155 0.95579 -0.00023 186.51022 0 -3.12553 3.76401 4.17888 -5.51762 -2.43369 9.07195 -2.26 -2.62417 -19.11517 12.57756 9.2036 79.75072 -1.51659 1.42183 -2.7929 -0.58749 7.36268 5.3182 -71.06301 -4.17677 -1.18999 -4.12756 7.28936 2.91158 -3.76149 1.78056 -4.16664 -5.9844 -2.22798 0.34074 -5.67017 -6.10767 6.17645 6.14297 8.7917
0.00195 0.9558 -0.00028 186.58821 0 -3.12074 3.634 4.218 -5.51866 -1.94923 9.04879 -2.2083 -2.97747 -19.15459 12.24597 9.07697 79.70118 -1.64056 1.26024 -3.1098 -0.22836 2.56664 5.34519 -72.32877 -3.91538 -0.57634 -4.10247 7.29196 2.87167 -3.77554 1.77686 -4.18173 -6.01982 -2.1858 0.33984 -5.74701 -6.12883 6.15875 6.13711 8.78255
0.0024 0.95583 -0.00032 186.63945 0 -3.12647 3.5303 4.25972 -5.38592 -1.63238 9.04365 -2.12031 -3.12837 -19.22838 12.35605 9.06198 79.69623 -1.67002 1.17739 -2.93227 0.01036 -0.19924 5.49503 -73.04887 -3.87407 -0.24446 -4.06015 7.29855 2.82852 -3.81343 1.77468 -4.17416 -6.01301 -2.16867 0.35406 -5.77862 -6.09978 6.12704 6.12824 8.73871
0.00285 0.95586 -0.00035 186.67782 0 -3.13727 3.43644 4.30241 -5.20664 -1.37878 9.04875 -2.02109 -3.19866 -19.31574 12.62255 9.08794 79.70735 -1.6669 1.12105 -2.57027 0.19638 -2.17573 5.6868 -73.5592 -3.91134 -0.01991 -4.00995 7.30854 2.78921 -3.86281 1.77254 -4.15834 -5.99325 -2.16358 0.37645 -5.79065 -6.04754 6.08949 6.1165 8.67918
0.0033 0.95589 -0.0004 186.71874 0 -3.14731 3.33838 4.34487 -5.05126 -1.09834 9.05365 -1.92934 -3.29811 -19.39842 12.81226 9.09576 79.71087 -1.68118 1.04958 -2.28844 0.39624 -4.45818 5.85589 -74.15285 -3.91027 0.2485 -3.96156 7.31925 2.75327 -3.91003 1.76974 -4.14622 -5.98188 -2.15678 0.39838 -5.80794 -5.99927 6.05356 6.10373 8.62259
0.00376 0.95591 -0.00039 186.77414 0 -3.15102 3.23924 4.38673 -4.88393 -0.80948 9.04003 -1.8275 -3.42932 -19.47539 13.02728 9.10234 79.7157 -1.68478 0.99061 -2.02237 0.63881 -6.96449 6.04029 -74.79639 -3.92003 0.53746 -3.92078 7.32036 2.69436 -3.944 1.7696 -4.13414 -5.95911 -2.13475 0.40682 -5.84044 -5.97718 6.02167 6.10042 8.58258
0.0042 0.95595 -0.00051 186.79565 0 -3.16887 3.14463 4.42968 -4.73087 -0.55374 9.06709 -1.74415 -3.47495 -19.56677 13.22519 9.12033 79.72154 -1.70251 0.91258 -1.67929 0.77981 -8.81504 6.20272 -75.28702 -3.92627 0.75829 -3.86211 7.34231 2.68593 -4.00871 1.764 -4.12025 -5.95804 -2.1465 0.44501 -5.83679 -5.89698 5.98041 6.07724 8.5057
0.00457 0.95604 -0.00093 186.7323 0 -3.2268 3.06058 4.47871 -4.62475 -0.36953 9.20608 -1.71349 -3.30649 -19.7005 13.35216 9.16778 79.72716 -1.7707 0.76964 -1.17137 0.65475 -9.06834 6.29487 -75.40024 -3.90024 0.81597 -3.75736 7.42105 2.80473 -4.15211 1.74304 -4.10042 -6.01438 -2.25537 0.56591 -5.73667 -5.64591 5.91126 5.99563 8.31939
0.0049 0.95615 -0.00148 186.63408 0 -3.29835 2.98069 4.5282 -4.53525 -0.21772 9.38485 -1.70205 -3.05424 -19.84691 13.45473 9.22401 79.73312 -1.8536 0.60768 -0.59156 0.42951 -8.68616 6.36348 -75.36803 -3.86858 0.80894 -3.63461 7.52082 2.97876 -4.32684 1.71683 -4.07895 -6.09633 -2.39649 0.71597 -5.60108 -5.34045 5.83365 5.89506 8.09889
0.00524 0.95625 -0.002 186.54842 0 -3.36224 2.89851 4.57531 -4.44075 -0.0535 9.54454 -1.68255 -2.83871 -19.98404 13.55771 9.27072 79.73831 -1.92748 0.45826 -0.04322 0.24853 -8.5805 6.44227 -75.40675 -3.84173 0.83252 -3.51922 7.61067 3.13167 -4.48926 1.69302 -4.06103 -6.16736 -2.51851 0.85104 -5.48273 -5.07008 5.76203 5.80581 7.90127
0.00562 0.95634 -0.00243 186.47692 0 -3.43261 2.81819 4.63158 -4.33413 0.11995 9.71052 -1.65975 -2.62608 -20.13767 13.70737 9.34137 79.7465 -2.01002 0.29341 0.50544 0.06907 -8.49537 6.52417 -75.41789 -3.80819 0.84769 -3.40707 7.70139 3.25768 -4.64329 1.66847 -4.03369 -6.2255 -2.66003 0.99387 -5.3591 -4.75396 5.68066 5.70449 7.67116
0.00591 0.95646 -0.00307 186.36689 0 -3.49251 2.73507 4.66888 -4.25694 0.26521 9.87059 -1.6486 -2.38859 -20.25831 13.75685 9.36476 79.74852 -2.07852 0.15573 1.06943 -0.13416 -8.23154 6.59415 -75.45446 -3.78614 0.86593 -3.28393 7.79622 3.46561 -4.82292 1.64508 -4.02229 -6.32851 -2.76802 1.12721 -5.23811 -4.52194 5.61828 5.62453 7.50201
0.00598 0.95668 -0.00424 186.16701 0 -3.52135 2.64158 4.65361 -4.26032 0.35805 10.02175 -1.66458 -2.10288 -20.29597 13.49192 9.246 79.73174 -2.10394 0.09844 1.64618 -0.39854 -7.59378 6.631 -75.59935 -3.79753 0.91344 -3.13524 7.88857 3.76932 -5.05863 1.61889 -4.08674 -6.44137 -2.77896 1.22808 -5.13479 -4.5242 5.60551 5.60266 7.49948
0.00595 0.95693 -0.00562 185.92812 0 -3.53886 2.54554 4.6193 -4.29232 0.42024 10.16166 -1.69188 -1.79537 -20.29716 13.13366 9.08079 79.70905 -2.11492 0.06888 2.23728 -0.67854 -6.80942 6.65781 -75.77529 -3.82028 0.96609 -2.976 7.98556 4.17032 -5.32041 1.59554 -4.16309 -6.61356 -2.75421 1.31807 -5.03514 -4.61567 5.61324 5.60411 7.56159
0.00595 0.95717 -0.00693 185.70196 0 -3.56086 2.45151 4.59366 -4.30932 0.48584 10.29629 -1.71408 -1.49845 -20.30845 12.84694 8.94306 79.69 -2.13325 0.02606 2.82866 -0.93903 -6.11897 6.69262 -75.93664 -3.83713 1.01346 -2.82146 8.08658 4.60985 -5.57456 1.57552 -4.21131 -6.83586 -2.7437 1.41255 -4.93272 -4.67321 5.6146 5.59841 7.60055
0.00601 0.95742 -0.00815 185.49579 0 -3.58642 2.35345 4.56771 -4.33543 0.59648 10.47898 -1.73617 -1.1961 -20.35023 12.43952 8.77939 79.66663 -2.14912 -0.01457 3.39364 -1.25886 -5.28812 6.71115 -76.09545 -3.85667 1.07019 -2.66696 8.16395 4.72274 -5.81136 1.53532 -4.34862 -6.75472 -2.74326 1.51039 -4.8336 -4.69897 5.60254 5.57706 7.61131
